#!OML:ASF E:\emotionWalksFemale\Project 1\Capture day 1\Session 1\Female1.ASF
:FULLY-SPECIFIED
:DEGREES
589
root 6.76948 14.7203 24.5416 202.177 30.573 -169.73
lowerback 16.0541 4.60294 -1.9882
upperback -0.213431 5.69949 -1.28449
thorax -9.29156 2.82151 -1.62709
lowerneck -8.12829 3.45525 -1.50492
upperneck -8.52978 5.65043 3.94813
head -1.47772 3.13933 1.54119
rclavicle 1.55052e-014 -4.92986e-014
rhumerus -38.4956 18.6026 -96.086
rradius 45.3334
rwrist 2.83099
rhand -2.80483 -49.185
rfingers 7.12502
rthumb 22.9013 -77.845
lclavicle 1.55052e-014 -4.92986e-014
lhumerus -16.0312 -5.83206 75.2833
lradius 48.4174
lwrist -0.406813
lhand -14.3065 -34.5483
lfingers 7.12502
lthumb 11.8335 -4.90263
rfemur -0.615488 1.7082 22.4014
rtibia 12.6442
rfoot -52.5977 -47.3116
rtoes 60.0365
lfemur -49.5604 6.09703 -16.1003
ltibia 55.3776
lfoot -25.5783 8.32338
ltoes -17.9019
590
root 6.76388 14.7244 24.4826 202.233 30.5862 -169.685
lowerback 15.9968 4.64362 -1.98906
upperback -0.113647 5.75666 -1.33859
thorax -9.1438 2.85152 -1.68681
lowerneck -8.42432 3.43091 -1.23972
upperneck -8.56321 5.6106 3.75255
head -1.42365 3.12527 1.4388
rclavicle -8.90555e-014 2.3059e-014
rhumerus -38.172 18.3848 -95.8368
rradius 45.2437
rwrist 2.61699
rhand -2.56351 -48.9254
rfingers 7.12502
rthumb 23.1328 -77.5565
lclavicle -8.90555e-014 2.3059e-014
lhumerus -15.4207 -6.07101 75.1365
lradius 48.4603
lwrist -0.200461
lhand -14.2901 -34.5518
lfingers 7.12502
lthumb 11.8494 -4.90704
rfemur -0.85964 1.93472 22.4373
rtibia 12.7481
rfoot -53.6673 -46.6245
rtoes 60.3705
lfemur -49.3632 5.84707 -16.1056
ltibia 55.3955
lfoot -25.8188 7.9857
ltoes -14.2514
591
root 6.75865 14.7237 24.4248 202.203 30.5811 -169.616
lowerback 16.0586 4.6064 -1.94582
upperback -0.14327 5.71629 -1.28128
thorax -9.21305 2.82986 -1.64719
lowerneck -8.03554 3.47676 -1.30352
upperneck -8.63063 5.652 3.67114
head -1.5097 3.13445 1.41464
rclavicle -3.53837e-014 1.43125e-014
rhumerus -38.4117 18.3598 -95.6128
rradius 45.3389
rwrist 2.57591
rhand -2.46724 -48.5663
rfingers 7.12502
rthumb 23.2252 -77.1858
lclavicle -3.53837e-014 1.43125e-014
lhumerus -15.3561 -6.19427 75.0547
lradius 48.5667
lwrist 0.0912021
lhand -14.1957 -34.7585
lfingers 7.12502
lthumb 11.9404 -5.11907
rfemur -1.17545 2.11602 22.4749
rtibia 13.0214
rfoot -54.398 -46.6768
rtoes 60.4476
lfemur -49.0519 5.61047 -16.1521
ltibia 55.4007
lfoot -25.8162 8.85645
ltoes -17.2062
592
root 6.75292 14.7264 24.3686 202.174 30.5733 -169.581
lowerback 16.0484 4.54346 -1.88625
upperback -0.129977 5.64646 -1.26159
thorax -9.18905 2.79465 -1.64059
lowerneck -7.85278 3.55686 -1.46349
upperneck -8.5834 5.75503 3.73714
head -1.53519 3.18119 1.46029
rclavicle 3.4191e-014 7.15625e-015
rhumerus -38.5274 18.4833 -95.4641
rradius 45.4119
rwrist 2.50871
rhand -2.61208 -48.6841
rfingers 7.12502
rthumb 23.0862 -77.3211
lclavicle 3.4191e-014 7.15625e-015
lhumerus -15.3461 -6.1133 74.9552
lradius 48.7802
lwrist 0.356975
lhand -14.1004 -34.9012
lfingers 7.12502
lthumb 12.0323 -5.26705
rfemur -1.50715 2.20938 22.4975
rtibia 13.4373
rfoot -53.7204 -47.5067
rtoes 59.8992
lfemur -48.7424 5.32627 -16.2091
ltibia 55.3768
lfoot -25.8735 9.58273
ltoes -19.2247
593
root 6.74633 14.7375 24.3087 202.256 30.5514 -169.528
lowerback 15.9718 4.50334 -1.84801
upperback -0.186144 5.60133 -1.22692
thorax -9.2075 2.77076 -1.61037
lowerneck -7.70123 3.58203 -1.52326
upperneck -8.6181 5.78166 3.69269
head -1.57262 3.19084 1.45269
rclavicle 1.47101e-014 1.51076e-014
rhumerus -38.6541 18.625 -95.3158
rradius 45.349
rwrist 2.55954
rhand -2.85189 -48.8626
rfingers 7.12502
rthumb 22.8561 -77.5282
lclavicle 1.47101e-014 1.51076e-014
lhumerus -15.4142 -5.95933 74.9515
lradius 48.931
lwrist 0.387865
lhand -14.2908 -34.808
lfingers 7.12502
lthumb 11.8487 -5.16326
rfemur -1.7316 1.41853 22.6271
rtibia 13.9217
rfoot -51.8256 -47.3941
rtoes 59.2132
lfemur -48.4968 5.03039 -16.2233
ltibia 55.2949
lfoot -26.0645 9.73304
ltoes -18.2236
594
root 6.7392 14.7438 24.2552 202.278 30.5006 -169.542
lowerback 16.0483 4.47047 -1.87072
upperback -0.310517 5.54577 -1.21374
thorax -9.39113 2.74109 -1.58461
lowerneck -7.39764 3.58881 -1.45078
upperneck -8.7215 5.7741 3.61575
head -1.65118 3.17749 1.40775
rclavicle -6.52014e-014 -2.78299e-014
rhumerus -38.8316 18.5248 -95.1593
rradius 45.2315
rwrist 2.70843
rhand -2.74972 -48.6536
rfingers 7.12502
rthumb 22.9542 -77.3071
lclavicle -6.52014e-014 -2.78299e-014
lhumerus -15.5082 -5.90947 74.9538
lradius 48.9169
lwrist 0.253698
lhand -14.3965 -34.7622
lfingers 7.12502
lthumb 11.7468 -5.11156
rfemur -1.97673 1.13506 22.6636
rtibia 14.3146
rfoot -51.8226 -46.6558
rtoes 59.3927
lfemur -48.2809 4.70443 -16.28
ltibia 55.2313
lfoot -26.2346 10.0006
ltoes -18.1261
595
root 6.73328 14.749 24.2068 202.191 30.5395 -169.615
lowerback 16.0936 4.50581 -1.83776
upperback -0.220294 5.59591 -1.30703
thorax -9.30434 2.7643 -1.71352
lowerneck -7.54297 3.5427 -1.4577
upperneck -8.70033 5.7262 3.69082
head -1.62159 3.15875 1.43619
rclavicle 1.39149e-014 1.82882e-014
rhumerus -38.5966 18.2935 -94.949
rradius 45.1322
rwrist 2.36536
rhand -2.00338 -49.3199
rfingers 7.12502
rthumb 23.6701 -77.8826
lclavicle 1.39149e-014 1.82882e-014
lhumerus -15.0827 -5.96156 74.9223
lradius 48.8017
lwrist 0.140544
lhand -14.2855 -34.9108
lfingers 7.12502
lthumb 11.8538 -5.26635
rfemur -2.31838 1.28675 22.6013
rtibia 14.6462
rfoot -54.3248 -45.0065
rtoes 60.7472
lfemur -48.0006 4.44618 -16.3946
ltibia 55.1951
lfoot -26.4266 10.2267
ltoes -17.9739
596
root 6.73052 14.7473 24.1564 202.23 30.6426 -169.547
lowerback 16.1904 4.56178 -1.99319
upperback -0.292136 5.63873 -1.25071
thorax -9.45931 2.7899 -1.59055
lowerneck -7.61914 3.54636 -1.43204
upperneck -8.50924 5.70655 3.65794
head -1.54474 3.1446 1.42482
rclavicle 6.48038e-014 -2.38542e-015
rhumerus -38.6943 18.3174 -94.8062
rradius 44.9716
rwrist 2.11845
rhand -1.70294 -50.1835
rfingers 7.12502
rthumb 23.9583 -78.7087
lclavicle 6.48038e-014 -2.38542e-015
lhumerus -15.0496 -5.95177 74.9234
lradius 48.7956
lwrist 0.147031
lhand -14.3504 -34.8346
lfingers 7.12502
lthumb 11.7912 -5.18655
rfemur -2.8523 1.60965 22.6428
rtibia 14.7528
rfoot -55.7451 -45.4035
rtoes 61.0131
lfemur -47.8234 4.38811 -16.4289
ltibia 55.26
lfoot -26.715 10.1722
ltoes -16.7872
597
root 6.72827 14.7496 24.106 202.351 30.7051 -169.379
lowerback 16.1321 4.57382 -2.06399
upperback -0.304689 5.64929 -1.15587
thorax -9.4573 2.80009 -1.44776
lowerneck -7.68408 3.54693 -1.54544
upperneck -8.42913 5.71032 3.71781
head -1.51396 3.14828 1.46576
rclavicle 5.1684e-015 7.95139e-016
rhumerus -38.6001 18.2036 -94.5063
rradius 44.789
rwrist 2.5209
rhand -2.29898 -49.8943
rfingers 7.12502
rthumb 23.3866 -78.4934
lclavicle 5.1684e-015 7.95139e-016
lhumerus -15.0543 -5.82576 74.9187
lradius 48.8154
lwrist 0.172667
lhand -14.3046 -34.7436
lfingers 7.12502
lthumb 11.8354 -5.09803
rfemur -3.03795 1.65309 22.8186
rtibia 14.8827
rfoot -57.3669 -43.5476
rtoes 61.9374
lfemur -47.6682 4.29392 -16.3192
ltibia 55.3223
lfoot -27.156 9.7813
ltoes -13.6169
598
root 6.72578 14.751 24.0586 202.449 30.8372 -169.24
lowerback 16.0949 4.65239 -2.14791
upperback -0.266464 5.74357 -1.11893
thorax -9.40686 2.851 -1.37901
lowerneck -7.98547 3.54547 -1.68365
upperneck -8.30358 5.73632 3.92197
head -1.43606 3.172 1.56341
rclavicle 2.06736e-014 -4.77083e-015
rhumerus -38.4011 17.8425 -94.1378
rradius 44.7065
rwrist 2.95331
rhand -2.72853 -49.2727
rfingers 7.12502
rthumb 22.9745 -77.9237
lclavicle 2.06736e-014 -4.77083e-015
lhumerus -15.1329 -5.64309 75.0615
lradius 48.9624
lwrist 0.0896597
lhand -13.906 -34.9486
lfingers 7.12502
lthumb 12.2198 -5.32552
rfemur -3.28821 1.50197 22.9267
rtibia 15.0038
rfoot -57.193 -43.317
rtoes 62.0702
lfemur -47.4904 4.21925 -16.2465
ltibia 55.3865
lfoot -27.429 9.53492
ltoes -10.8946
599
root 6.72277 14.7641 24.0087 202.499 31.0022 -169.14
lowerback 16.0219 4.75763 -2.15532
upperback -0.140896 5.88633 -1.17742
thorax -9.22247 2.92257 -1.45762
lowerneck -8.54943 3.49594 -1.51058
upperneck -8.24491 5.69232 3.94558
head -1.31838 3.16594 1.55443
rclavicle -3.69739e-014 3.02153e-014
rhumerus -38.0265 17.367 -93.8046
rradius 44.5069
rwrist 3.28239
rhand -2.73812 -49.0886
rfingers 7.12502
rthumb 22.9653 -77.7407
lclavicle -3.69739e-014 3.02153e-014
lhumerus -14.6096 -5.89824 74.9559
lradius 48.8077
lwrist 0.362771
lhand -13.5264 -35.1345
lfingers 7.12502
lthumb 12.5858 -5.53365
rfemur -3.54779 1.56511 22.958
rtibia 15.2959
rfoot -57.7904 -42.7431
rtoes 62.4144
lfemur -47.1878 4.25966 -16.3132
ltibia 55.3282
lfoot -27.4355 9.97368
ltoes -12.5802
600
root 6.71705 14.7638 23.9605 202.443 31.0844 -169.154
lowerback 16.0128 4.76217 -2.12654
upperback -0.0895181 5.897 -1.23155
thorax -9.15194 2.92706 -1.52989
lowerneck -8.61791 3.4793 -1.44439
upperneck -8.30332 5.67495 3.91061
head -1.3221 3.15998 1.53255
rclavicle -7.95139e-016 -1.43125e-014
rhumerus -37.9168 17.1362 -93.5744
rradius 44.4249
rwrist 3.37274
rhand -2.14026 -49.6654
rfingers 7.12502
rthumb 23.5389 -78.245
lclavicle -7.95139e-016 -1.43125e-014
lhumerus -14.5982 -5.90676 74.8812
lradius 48.8828
lwrist 0.35715
lhand -13.3925 -35.1283
lfingers 7.12502
lthumb 12.7148 -5.53541
rfemur -3.80295 1.37934 22.9852
rtibia 15.6354
rfoot -57.9208 -42.649
rtoes 62.4195
lfemur -46.8949 4.17768 -16.4584
ltibia 55.2531
lfoot -27.4584 10.5674
ltoes -15.267
601
root 6.71192 14.7706 23.9153 202.418 31.1685 -169.217
lowerback 15.9621 4.74145 -2.20446
upperback -0.0872466 5.85482 -1.25524
thorax -9.12628 2.91034 -1.49733
lowerneck -8.51429 3.54235 -1.58937
upperneck -8.29934 5.76688 3.98769
head -1.34791 3.20523 1.58086
rclavicle 3.93594e-014 -2.78299e-014
rhumerus -37.9507 17.1931 -93.459
rradius 44.4233
rwrist 2.92528
rhand -1.32093 -50.611
rfingers 7.12502
rthumb 24.3246 -79.0875
lclavicle 3.93594e-014 -2.78299e-014
lhumerus -14.7276 -5.78094 74.8513
lradius 48.8929
lwrist 0.120429
lhand -13.3488 -34.831
lfingers 7.12502
lthumb 12.7569 -5.24076
rfemur -4.26804 1.27986 22.9511
rtibia 16.1522
rfoot -57.3676 -43.8898
rtoes 61.7575
lfemur -46.6112 4.07897 -16.612
ltibia 55.0598
lfoot -27.4515 10.971
ltoes -17.334
602
root 6.70951 14.7764 23.8713 202.501 31.3095 -169.146
lowerback 15.844 4.75158 -2.25531
upperback -0.0907067 5.86162 -1.25711
thorax -9.06861 2.91648 -1.4622
lowerneck -8.38922 3.60863 -1.51184
upperneck -8.44226 5.85302 3.87793
head -1.41093 3.24597 1.52843
rclavicle -5.40694e-014 -4.29375e-014
rhumerus -37.9233 17.2812 -93.4195
rradius 44.3413
rwrist 2.63427
rhand -1.68163 -50.7016
rfingers 7.12502
rthumb 23.9787 -79.2241
lclavicle -5.40694e-014 -4.29375e-014
lhumerus -14.8169 -5.67114 74.823
lradius 48.801
lwrist -0.117973
lhand -13.3561 -34.6237
lfingers 7.12502
lthumb 12.7499 -5.03294
rfemur -4.58099 1.29703 23.0186
rtibia 16.5835
rfoot -57.2988 -44.0472
rtoes 61.4742
lfemur -46.3564 4.08737 -16.6468
ltibia 54.8588
lfoot -27.5148 11.1872
ltoes -18.4641
603
root 6.70952 14.7968 23.8215 202.508 31.489 -169.092
lowerback 15.7779 4.77444 -2.31436
upperback -0.0693681 5.88061 -1.30864
thorax -9.00851 2.92837 -1.48173
lowerneck -8.37443 3.61489 -1.22541
upperneck -8.62642 5.85194 3.68549
head -1.45671 3.24361 1.41521
rclavicle 7.27552e-014 -1.03368e-014
rhumerus -37.7955 17.1302 -93.3679
rradius 44.2654
rwrist 2.94616
rhand -2.3917 -50.5515
rfingers 7.12502
rthumb 23.2977 -79.1619
lclavicle 7.27552e-014 -1.03368e-014
lhumerus -14.922 -5.50745 74.7842
lradius 48.7605
lwrist -0.30722
lhand -13.3496 -34.6031
lfingers 7.12502
lthumb 12.7562 -5.01273
rfemur -4.68782 0.693708 23.1306
rtibia 17.0058
rfoot -56.0421 -43.8052
rtoes 61.033
lfemur -45.919 4.14813 -16.7306
ltibia 54.5844
lfoot -27.6408 11.3549
ltoes -19.162
